<?xml version="1.0" encoding="UTF-8"?>
<svg xmlns="http://www.w3.org/2000/svg" xmlns:xlink="http://www.w3.org/1999/xlink" width="1024" height="1024" viewBox="0 0 1024 1024">
<defs>
<linearGradient id="bgGrad" x1="0%" y1="0%" x2="0%" y2="100%">
<stop offset="0%" style="stop-color:#0F172A;stop-opacity:1" />
<stop offset="100%" style="stop-color:#1E293B;stop-opacity:1" />
</linearGradient>
<linearGradient id="strandAGrad" x1="0%" y1="0%" x2="0%" y2="100%">
<stop offset="0%" style="stop-color:#2DD4BF;stop-opacity:1" />
<stop offset="100%" style="stop-color:#22D3EE;stop-opacity:1" />
</linearGradient>
<linearGradient id="strandBGrad" x1="0%" y1="0%" x2="0%" y2="100%">
<stop offset="0%" style="stop-color:#A78BFA;stop-opacity:1" />
<stop offset="100%" style="stop-color:#818CF8;stop-opacity:1" />
</linearGradient>
<clipPath id="macClip">
<rect x="100" y="100" width="824" height="824" rx="185" ry="185" />
</clipPath>
</defs>
<rect x="0" y="0" width="1024" height="1024" fill="url(#bgGrad)" />
<g clip-path="url(#macClip)">
<g transform="translate(100, 100) scale(0.8046875)">
<rect x="0" y="0" width="1024" height="1024" fill="url(#bgGrad)" />
<line x1="512.0" y1="180" x2="512.0" y2="180" stroke="#FFFFFF" stroke-width="20" stroke-linecap="round" opacity="0.32" />
<line x1="712.0" y1="263" x2="312.0" y2="263" stroke="#FFFFFF" stroke-width="20" stroke-linecap="round" opacity="0.32" />
<line x1="512.0" y1="346" x2="512.0" y2="346" stroke="#FFFFFF" stroke-width="20" stroke-linecap="round" opacity="0.32" />
<line x1="312.0" y1="429" x2="712.0" y2="429" stroke="#FFFFFF" stroke-width="20" stroke-linecap="round" opacity="0.32" />
<line x1="512.0" y1="512" x2="512.0" y2="512" stroke="#FFFFFF" stroke-width="20" stroke-linecap="round" opacity="0.32" />
<line x1="712.0" y1="595" x2="312.0" y2="595" stroke="#FFFFFF" stroke-width="20" stroke-linecap="round" opacity="0.32" />
<line x1="512.0" y1="678" x2="512.0" y2="678" stroke="#FFFFFF" stroke-width="20" stroke-linecap="round" opacity="0.32" />
<line x1="312.0" y1="761" x2="712.0" y2="761" stroke="#FFFFFF" stroke-width="20" stroke-linecap="round" opacity="0.32" />
<line x1="512.0" y1="844" x2="512.0" y2="844" stroke="#FFFFFF" stroke-width="20" stroke-linecap="round" opacity="0.32" />
<path d="M 512.0 180.0 L 499.38 183.34 L 486.81 186.67 L 474.34 190.01 L 462.02 193.35 L 449.9 196.68 L 438.02 200.02 L 426.44 203.36 L 415.21 206.69 L 404.36 210.03 L 393.93 213.37 L 383.98 216.7 L 374.54 220.04 L 365.65 223.38 L 357.34 226.71 L 349.64 230.05 L 342.6 233.39 L 336.22 236.72 L 330.55 240.06 L 325.61 243.4 L 321.4 246.73 L 317.96 250.07 L 315.29 253.41 L 313.4 256.74 L 312.31 260.08 L 312.01 263.42 L 312.5 266.75 L 313.8 270.09 L 315.88 273.43 L 318.75 276.76 L 322.38 280.1 L 326.77 283.44 L 331.9 286.77 L 337.75 290.11 L 344.29 293.45 L 351.51 296.78 L 359.36 300.12 L 367.82 303.46 L 376.85 306.79 L 386.42 310.13 L 396.5 313.47 L 407.03 316.8 L 417.98 320.14 L 429.31 323.48 L 440.97 326.81 L 452.91 330.15 L 465.08 333.49 L 477.44 336.82 L 489.94 340.16 L 502.53 343.5 L 515.16 346.83 L 527.77 350.17 L 540.32 353.51 L 552.76 356.84 L 565.03 360.18 L 577.1 363.52 L 588.9 366.85 L 600.4 370.19 L 611.54 373.53 L 622.29 376.86 L 632.6 380.2 L 642.43 383.54 L 651.74 386.87 L 660.49 390.21 L 668.65 393.55 L 676.18 396.88 L 683.06 400.22 L 689.26 403.56 L 694.75 406.89 L 699.52 410.23 L 703.53 413.57 L 706.78 416.9 L 709.26 420.24 L 710.95 423.58 L 711.84 426.91 L 711.94 430.25 L 711.25 433.59 L 709.75 436.92 L 707.48 440.26 L 704.42 443.6 L 700.59 446.93 L 696.01 450.27 L 690.7 453.61 L 684.68 456.94 L 677.96 460.28 L 670.59 463.62 L 662.58 466.95 L 653.98 470.29 L 644.81 473.63 L 635.1 476.96 L 624.91 480.3 L 614.27 483.64 L 603.22 486.97 L 591.81 490.31 L 580.07 493.65 L 568.07 496.98 L 555.84 500.32 L 543.44 503.66 L 530.92 506.99 L 518.31 510.33 L 505.69 513.67 L 493.08 517.01 L 480.56 520.34 L 468.16 523.68 L 455.93 527.02 L 443.93 530.35 L 432.19 533.69 L 420.78 537.03 L 409.73 540.36 L 399.09 543.7 L 388.9 547.04 L 379.19 550.37 L 370.02 553.71 L 361.42 557.05 L 353.41 560.38 L 346.04 563.72 L 339.32 567.06 L 333.3 570.39 L 327.99 573.73 L 323.41 577.07 L 319.58 580.4 L 316.52 583.74 L 314.25 587.08 L 312.75 590.41 L 312.06 593.75 L 312.16 597.09 L 313.05 600.42 L 314.74 603.76 L 317.22 607.1 L 320.47 610.43 L 324.48 613.77 L 329.25 617.11 L 334.74 620.44 L 340.94 623.78 L 347.82 627.12 L 355.35 630.45 L 363.51 633.79 L 372.26 637.13 L 381.57 640.46 L 391.4 643.8 L 401.71 647.14 L 412.46 650.47 L 423.6 653.81 L 435.1 657.15 L 446.9 660.48 L 458.97 663.82 L 471.24 667.16 L 483.68 670.49 L 496.23 673.83 L 508.84 677.17 L 521.47 680.5 L 534.06 683.84 L 546.56 687.18 L 558.92 690.51 L 571.09 693.85 L 583.03 697.19 L 594.69 700.52 L 606.02 703.86 L 616.97 707.2 L 627.5 710.53 L 637.58 713.87 L 647.15 717.21 L 656.18 720.54 L 664.64 723.88 L 672.49 727.22 L 679.71 730.55 L 686.25 733.89 L 692.1 737.23 L 697.23 740.56 L 701.62 743.9 L 705.25 747.24 L 708.12 750.57 L 710.2 753.91 L 711.5 757.25 L 711.99 760.58 L 711.69 763.92 L 710.6 767.26 L 708.71 770.59 L 706.04 773.93 L 702.6 777.27 L 698.39 780.6 L 693.45 783.94 L 687.78 787.28 L 681.4 790.61 L 674.36 793.95 L 666.66 797.29 L 658.35 800.62 L 649.46 803.96 L 640.02 807.3 L 630.07 810.63 L 619.64 813.97 L 608.79 817.31 L 597.56 820.64 L 585.98 823.98 L 574.1 827.32 L 561.98 830.65 L 549.66 833.99 L 537.19 837.33 L 524.62 840.66 L 512.0 844.0" stroke="url(#strandBGrad)" stroke-width="46" stroke-linecap="round" fill="none" />
<path d="M 512.0 180.0 L 524.62 183.34 L 537.19 186.67 L 549.66 190.01 L 561.98 193.35 L 574.1 196.68 L 585.98 200.02 L 597.56 203.36 L 608.79 206.69 L 619.64 210.03 L 630.07 213.37 L 640.02 216.7 L 649.46 220.04 L 658.35 223.38 L 666.66 226.71 L 674.36 230.05 L 681.4 233.39 L 687.78 236.72 L 693.45 240.06 L 698.39 243.4 L 702.6 246.73 L 706.04 250.07 L 708.71 253.41 L 710.6 256.74 L 711.69 260.08 L 711.99 263.42 L 711.5 266.75 L 710.2 270.09 L 708.12 273.43 L 705.25 276.76 L 701.62 280.1 L 697.23 283.44 L 692.1 286.77 L 686.25 290.11 L 679.71 293.45 L 672.49 296.78 L 664.64 300.12 L 656.18 303.46 L 647.15 306.79 L 637.58 310.13 L 627.5 313.47 L 616.97 316.8 L 606.02 320.14 L 594.69 323.48 L 583.03 326.81 L 571.09 330.15 L 558.92 333.49 L 546.56 336.82 L 534.06 340.16 L 521.47 343.5 L 508.84 346.83 L 496.23 350.17 L 483.68 353.51 L 471.24 356.84 L 458.97 360.18 L 446.9 363.52 L 435.1 366.85 L 423.6 370.19 L 412.46 373.53 L 401.71 376.86 L 391.4 380.2 L 381.57 383.54 L 372.26 386.87 L 363.51 390.21 L 355.35 393.55 L 347.82 396.88 L 340.94 400.22 L 334.74 403.56 L 329.25 406.89 L 324.48 410.23 L 320.47 413.57 L 317.22 416.9 L 314.74 420.24 L 313.05 423.58 L 312.16 426.91 L 312.06 430.25 L 312.75 433.59 L 314.25 436.92 L 316.52 440.26 L 319.58 443.6 L 323.41 446.93 L 327.99 450.27 L 333.3 453.61 L 339.32 456.94 L 346.04 460.28 L 353.41 463.62 L 361.42 466.95 L 370.02 470.29 L 379.19 473.63 L 388.9 476.96 L 399.09 480.3 L 409.73 483.64 L 420.78 486.97 L 432.19 490.31 L 443.93 493.65 L 455.93 496.98 L 468.16 500.32 L 480.56 503.66 L 493.08 506.99 L 505.69 510.33 L 518.31 513.67 L 530.92 517.01 L 543.44 520.34 L 555.84 523.68 L 568.07 527.02 L 580.07 530.35 L 591.81 533.69 L 603.22 537.03 L 614.27 540.36 L 624.91 543.7 L 635.1 547.04 L 644.81 550.37 L 653.98 553.71 L 662.58 557.05 L 670.59 560.38 L 677.96 563.72 L 684.68 567.06 L 690.7 570.39 L 696.01 573.73 L 700.59 577.07 L 704.42 580.4 L 707.48 583.74 L 709.75 587.08 L 711.25 590.41 L 711.94 593.75 L 711.84 597.09 L 710.95 600.42 L 709.26 603.76 L 706.78 607.1 L 703.53 610.43 L 699.52 613.77 L 694.75 617.11 L 689.26 620.44 L 683.06 623.78 L 676.18 627.12 L 668.65 630.45 L 660.49 633.79 L 651.74 637.13 L 642.43 640.46 L 632.6 643.8 L 622.29 647.14 L 611.54 650.47 L 600.4 653.81 L 588.9 657.15 L 577.1 660.48 L 565.03 663.82 L 552.76 667.16 L 540.32 670.49 L 527.77 673.83 L 515.16 677.17 L 502.53 680.5 L 489.94 683.84 L 477.44 687.18 L 465.08 690.51 L 452.91 693.85 L 440.97 697.19 L 429.31 700.52 L 417.98 703.86 L 407.03 707.2 L 396.5 710.53 L 386.42 713.87 L 376.85 717.21 L 367.82 720.54 L 359.36 723.88 L 351.51 727.22 L 344.29 730.55 L 337.75 733.89 L 331.9 737.23 L 326.77 740.56 L 322.38 743.9 L 318.75 747.24 L 315.88 750.57 L 313.8 753.91 L 312.5 757.25 L 312.01 760.58 L 312.31 763.92 L 313.4 767.26 L 315.29 770.59 L 317.96 773.93 L 321.4 777.27 L 325.61 780.6 L 330.55 783.94 L 336.22 787.28 L 342.6 790.61 L 349.64 793.95 L 357.34 797.29 L 365.65 800.62 L 374.54 803.96 L 383.98 807.3 L 393.93 810.63 L 404.36 813.97 L 415.21 817.31 L 426.44 820.64 L 438.02 823.98 L 449.9 827.32 L 462.02 830.65 L 474.34 833.99 L 486.81 837.33 L 499.38 840.66 L 512.0 844.0" stroke="url(#strandAGrad)" stroke-width="46" stroke-linecap="round" fill="none" />
</g>
</g>
</svg>